<svg width="66" height="62" viewBox="0 0 66 62" fill="none" xmlns="http://www.w3.org/2000/svg">
<path d="M62.2102 20.563C62.3922 20.1404 62.477 19.6825 62.4587 19.2228L62.4546 19.1202C62.4146 18.1197 61.8905 17.2012 61.0495 16.6578C60.2085 16.1144 59.1558 16.0139 58.2273 16.3885C57.9621 16.4954 57.7031 16.6174 57.4517 16.7537C57.4108 16.7759 57.3703 16.7991 57.3304 16.8231C55.4962 17.9284 53.9801 19.3063 52.6671 20.6456L52.6666 20.6461C50.0132 23.3538 47.6524 26.3447 45.4128 29.1821C44.8668 29.8739 44.3279 30.5565 43.7938 31.2237L43.793 31.2248C40.4812 35.3656 37.3169 39.2964 33.632 42.7065C33.5483 42.7839 33.469 42.866 33.3944 42.9522C33.2319 43.1402 33.0854 43.3414 32.9566 43.5538C32.1289 44.9183 32.4812 46.6891 33.7682 47.6327C36.8383 49.8839 40.4211 51.919 44.8563 52.3281L44.8603 52.3284C45.4084 52.3783 46.1434 52.3558 46.918 52.0139C47.675 51.6797 48.1619 51.1742 48.4479 50.8288L48.4526 50.8231C49.7833 49.2079 50.8673 47.4045 51.6693 45.4715C54.4625 38.8304 57.2604 32.1906 60.0632 25.5522C60.5391 24.4304 61.0195 23.3195 61.5045 22.1977C61.7386 21.6561 61.9739 21.112 62.2102 20.563Z" fill="#03CD69" stroke="#03CD69" stroke-width="6.15641" stroke-miterlimit="10" stroke-linejoin="round"/>
<path d="M46.7598 51.4313C46.9824 52.6307 46.4758 53.8484 45.468 54.5359C44.3294 55.3128 42.9424 55.8703 41.7697 56.2687C40.5564 56.681 39.3489 56.9956 38.476 57.2163L38.4745 57.2167C31.1491 59.0648 24.5241 57.3387 19.058 52.0971L19.057 52.0962C17.0153 50.1367 15.6374 47.808 14.6379 45.4234C11.2055 37.2558 7.76621 29.0905 4.32011 20.9277L4.31898 20.925C4.25926 20.7831 4.21194 20.6541 4.18546 20.5816C4.18105 20.5696 4.17711 20.5588 4.17359 20.5492C4.15017 20.4851 4.14498 20.4709 4.13895 20.4557C3.69414 19.3351 3.94447 18.058 4.77942 17.1883L4.90255 17.06C5.9878 15.9295 7.74912 15.7948 8.99367 16.7471C9.1978 16.9033 9.43636 17.0797 9.69547 17.2712C10.4052 17.7959 11.2692 18.4346 12.002 19.0849L46.7598 51.4313ZM46.7598 51.4313C46.5371 50.2319 45.6272 49.2772 44.4399 48.9971M46.7598 51.4313L44.4399 48.9971M44.4399 48.9971C42.4282 48.5227 39.9332 47.8542 38.6731 47.1437L38.6732 47.1437L38.6631 47.138C35.1076 45.1509 32.0623 42.4167 29.2675 39.2145C26.6687 36.2351 24.1761 33.1683 21.6448 30.0539C21.1404 29.4334 20.6345 28.811 20.1259 28.187L20.1256 28.1866M44.4399 48.9971L20.1256 28.1866M20.1256 28.1866C19.7918 27.7772 19.4541 27.3588 19.1114 26.9341M20.1256 28.1866L19.1114 26.9341M19.1114 26.9341C17.0145 24.3359 14.7295 21.5047 12.0023 19.0851L19.1114 26.9341Z" fill="#03CD69" stroke="#03CD69" stroke-width="6.15641" stroke-miterlimit="10" stroke-linejoin="round"/>
<path d="M38.8963 37.8084C39.8452 38.9975 39.7832 40.7014 38.7504 41.8183L35.4896 45.3449C34.9241 45.9565 34.135 46.3128 33.3023 46.3325C32.4696 46.3522 31.6645 46.0336 31.0707 45.4494C30.8163 45.1991 30.5288 44.9266 30.225 44.6384C29.47 43.9225 28.6136 43.1104 27.9096 42.3042L27.907 42.3012C25.3178 39.3282 22.7521 36.3189 20.242 33.2554C19.5629 32.4271 19.3493 31.5053 19.2594 31.0502C19.2084 30.7919 19.1738 30.5446 19.151 30.3803L19.1472 30.3531C19.1229 30.1776 19.1108 30.0904 19.0967 30.0124L19.0963 30.01C18.2031 25.0183 17.3184 20.0244 16.4423 15.0285C16.0909 13.0349 15.7428 11.0406 15.3982 9.04561C15.192 7.85152 15.7055 6.6475 16.71 5.96982L16.8393 5.88261C18.1884 4.97256 20.0127 5.26972 21.0031 6.56084C21.146 6.74714 21.3189 6.96453 21.5086 7.203C22.0071 7.82989 22.6214 8.60243 23.1117 9.33852L38.8963 37.8084ZM38.8963 37.8084L38.8961 37.8083C38.8955 37.8075 38.8925 37.8037 38.8863 37.7956L38.8576 37.7585L38.8456 37.743C38.8234 37.714 38.7928 37.6743 38.7614 37.634C38.6867 37.5381 38.5786 37.4017 38.4516 37.2565C36.9113 35.4792 35.5926 33.4855 34.3258 31.3167L34.3245 31.3145M38.8963 37.8084L34.3245 31.3145M34.3245 31.3145C32.4449 28.1028 30.8802 24.7461 29.2452 21.2386M34.3245 31.3145L29.2452 21.2386M29.2452 21.2386C28.921 20.543 28.594 19.8415 28.2613 19.1341L29.2452 21.2386ZM27.8053 18.1604C26.4704 15.3041 25.0214 12.2038 23.1125 9.33965L28.2609 19.1334C28.1102 18.8128 27.9585 18.4882 27.8053 18.1604Z" fill="#03CD69" stroke="#03CD69" stroke-width="6.15641" stroke-miterlimit="10" stroke-linejoin="round"/>
<path d="M49.9127 6.21332C50.7344 6.92209 51.1223 8.0112 50.9335 9.07985C50.3035 12.6458 49.6728 16.2111 49.0414 19.7757L49.9127 6.21332ZM49.9127 6.21332L49.8306 6.14252C48.5534 5.04097 46.6276 5.17233 45.5118 6.4371C45.4609 6.49486 45.3906 6.57221 45.3078 6.66334C45.0462 6.95131 44.6594 7.37697 44.3616 7.75755L44.3589 7.76105M49.9127 6.21332L44.3589 7.76105M47.0354 31.0439L47.0312 31.0662C46.8653 31.9386 46.4947 32.7592 45.9499 33.4606L45.9256 33.4915C44.7155 35.009 43.4842 36.5164 42.2351 38.0456C41.836 38.5343 41.435 39.0252 41.0323 39.5194C40.44 40.2462 39.5487 40.6635 38.6111 40.6529C37.6735 40.6422 36.7919 40.2048 36.2163 39.4647C36.0383 39.2359 35.8503 38.9977 35.6573 38.7533C35.1807 38.1496 34.6741 37.508 34.2161 36.8766L34.2144 36.8743C33.6028 36.0295 33.0491 35.169 32.5377 34.3375C32.5016 34.279 32.4676 34.2192 32.4355 34.1583C32.1745 33.6624 32.0259 33.1151 32.0003 32.5553C31.9746 31.9955 32.0725 31.4369 32.2871 30.9192C32.3324 30.8099 32.3839 30.7034 32.4414 30.6001C34.1973 27.447 35.6902 24.2366 37.2366 20.9111C37.9032 19.4776 38.5797 18.0228 39.2915 16.542L47.0354 31.0439ZM47.0354 31.0439C47.5855 28.0322 48.1173 25.0156 48.6472 22.0098M47.0354 31.0439L48.6472 22.0098M44.3589 7.76105C42.1613 10.5778 40.6453 13.7251 39.2916 16.5418L44.3589 7.76105ZM48.6472 22.0098C48.7786 21.2647 48.9098 20.5204 49.0412 19.7769L48.6472 22.0098Z" fill="#03CD69" stroke="#03CD69" stroke-width="6.15641" stroke-miterlimit="10" stroke-linejoin="round"/>
<path d="M33.3498 3.92635C34.6373 3.99652 35.7446 4.8617 36.1241 6.094C36.2958 6.65127 36.4638 7.19627 36.6293 7.73293C36.9708 8.84011 37.3013 9.9118 37.6294 10.9825L33.3498 3.92635ZM33.3498 3.92635C32.0623 3.85619 30.8675 4.59592 30.3563 5.77969M33.3498 3.92635L30.3563 5.77969M30.3563 5.77969C30.3267 5.84823 30.3115 5.88155 30.3042 5.89722L30.2853 5.9379C30.2764 5.9571 30.2581 5.99667 30.2373 6.04453C30.1912 6.15043 30.1512 6.25884 30.1173 6.36924C28.7756 10.7435 27.4407 15.1212 26.1127 19.5024C26.1042 19.5303 26.0962 19.5583 26.0885 19.5864C25.852 20.4546 25.9201 21.3776 26.2813 22.2017C26.2969 22.2371 26.3131 22.2722 26.3299 22.307C27.5989 24.9285 28.8723 27.5485 30.1501 30.1672L30.1678 30.2028C30.2545 30.3749 30.3411 30.5197 30.3919 30.604C30.4193 30.6493 30.4381 30.6802 30.4539 30.7059C30.4767 30.7433 30.4931 30.7701 30.5197 30.8153C31.0809 31.7666 32.1088 32.3444 33.2132 32.3292C34.3176 32.3141 35.3293 31.7084 35.8642 30.742C35.8693 30.7328 35.8798 30.7144 35.8944 30.6888C35.9657 30.5639 36.134 30.269 36.238 30.0543L33.8062 28.8766L30.3563 5.77969ZM39.9096 22.5271C40.1707 22.0165 40.3267 21.4584 40.3681 20.8859L39.9096 22.5271ZM38.4091 13.5298C38.1501 12.6828 37.8906 11.8343 37.6296 10.9833L40.3681 20.8859C40.4088 20.3214 40.3372 19.7547 40.1577 19.2185C39.569 17.3238 38.9902 15.4307 38.4091 13.5298Z" fill="#03CD69" stroke="#03CD69" stroke-width="6.15641" stroke-miterlimit="10" stroke-linejoin="round"/>
<path d="M36.5402 44.1936C40.0719 40.791 43.1388 36.971 46.1969 33.1474L36.5402 44.1936ZM36.5402 44.1936C36.4859 44.1542 36.4315 44.1145 36.3771 44.0747L35.7259 44.9628C35.7249 44.9637 35.7238 44.9647 35.7228 44.9657C35.6729 45.0234 35.6279 45.0852 35.5884 45.1504C35.8847 45.3677 36.1827 45.5802 36.4829 45.7871L36.6288 45.9447C36.6408 45.9336 36.6527 45.9225 36.6647 45.9114C39.2304 47.6543 41.9601 48.9697 45.139 49.2629C45.5792 49.3029 45.8152 49.1818 46.0769 48.8658C47.2157 47.4835 48.1431 45.9399 48.8288 44.2854L36.5402 44.1936ZM60.6081 19.8732C60.6869 19.6901 60.7237 19.4917 60.7157 19.2925L60.7116 19.1899C60.6943 18.7563 60.4672 18.3583 60.1028 18.1228C59.7384 17.8873 59.2822 17.8438 58.8798 18.0061C58.6758 18.0884 58.4766 18.1822 58.2832 18.2871C58.2655 18.2967 58.248 18.3067 58.2307 18.3172C56.5771 19.3136 55.1793 20.5747 53.9126 21.8667L53.9124 21.8669C51.3312 24.501 49.0438 27.3983 46.8086 30.2296C46.2556 30.9301 45.7058 31.6265 45.1556 32.3138L45.1552 32.3143C41.8548 36.4408 38.6126 40.4739 34.8168 43.9867C34.7805 44.0203 34.7462 44.0558 34.7138 44.0932C34.6151 44.2073 34.5262 44.3295 34.4479 44.4585C34.0893 45.0498 34.2419 45.8171 34.7996 46.2261C37.7627 48.3988 41.0392 50.2243 45.0165 50.5911L45.0183 50.5913C45.3805 50.6242 45.7948 50.603 46.2136 50.4181C46.6247 50.2366 46.9062 49.9557 47.1043 49.7164L47.1063 49.7139C48.3283 48.2307 49.3236 46.5745 50.0597 44.7994C52.8538 38.1559 55.6527 31.5138 58.4565 24.8731C58.935 23.7452 59.4198 22.624 59.9065 21.4983C60.14 20.9581 60.3741 20.4168 60.6081 19.8732Z" stroke="#1D1D1B" stroke-width="2.66778" stroke-miterlimit="10" stroke-linejoin="round"/>
<path d="M45.0447 51.7497C45.1412 52.2694 44.9217 52.7971 44.485 53.095C43.5433 53.7375 42.3344 54.2346 41.2085 54.6172C40.065 55.0057 38.9143 55.3063 38.0485 55.5252L38.0478 55.5254C31.3011 57.2274 25.2946 55.6608 20.2653 50.8381L20.2649 50.8377C18.4416 49.0879 17.1823 46.9816 16.2462 44.7483C12.8134 36.5795 9.37365 28.4132 5.92709 20.2492L5.9266 20.2481C5.88445 20.148 5.84941 20.0529 5.82368 19.9826C5.81945 19.971 5.81549 19.9601 5.81175 19.9499C5.78995 19.8902 5.77568 19.8511 5.76021 19.8122C5.56746 19.3266 5.67594 18.7732 6.03775 18.3963L6.16088 18.268C6.63115 17.7781 7.39439 17.7198 7.9337 18.1324C8.18268 18.3229 8.45104 18.5213 8.72934 18.727C9.42121 19.2385 10.1745 19.7953 10.8444 20.3897L45.0447 51.7497ZM45.0447 51.7497C44.9483 51.2299 44.554 50.8162 44.0395 50.6949M45.0447 51.7497L44.0395 50.6949M44.0395 50.6949C42.0843 50.2337 39.3321 49.5177 37.8164 48.6631L37.8121 48.6607M44.0395 50.6949L37.8121 48.6607M18.7737 29.2888L18.7738 29.289C19.2791 29.909 19.7828 30.5287 20.2858 31.1476C22.8172 34.2621 25.3323 37.3565 27.9528 40.3608L18.7737 29.2888ZM18.7737 29.2888C18.4304 28.8678 18.0864 28.4418 17.7403 28.0131M18.7737 29.2888L17.7403 28.0131M37.8121 48.6607C34.0305 46.5472 30.8346 43.6628 27.953 40.3611L37.8121 48.6607ZM17.7403 28.0131C15.6377 25.4092 13.454 22.7048 10.8445 20.3898L17.7403 28.0131Z" stroke="#1D1D1B" stroke-width="2.66778" stroke-miterlimit="10" stroke-linejoin="round"/>
<path d="M37.5329 38.8965C37.9441 39.4117 37.9173 40.1501 37.4697 40.6341L34.2089 44.1607C33.9638 44.4257 33.6219 44.5801 33.261 44.5886C32.9002 44.5972 32.5513 44.4591 32.294 44.206C31.99 43.9069 31.672 43.6055 31.3503 43.3005C30.62 42.6083 29.8709 41.8982 29.2235 41.1569L29.2223 41.1556C26.6412 38.1919 24.0878 35.1969 21.5921 32.151L37.5329 38.8965ZM37.5329 38.8965C37.5271 38.8892 37.5153 38.8738 37.4987 38.8522C37.4282 38.7605 37.2726 38.558 37.1371 38.403C35.4973 36.5118 34.1158 34.4157 32.8196 32.1965L32.819 32.1955M37.5329 38.8965L32.819 32.1955M20.8135 29.7038L20.8134 29.7028C19.9204 24.7127 19.0361 19.7206 18.1603 14.7265C17.8091 12.7346 17.4614 10.742 17.1171 8.74871C17.0277 8.23127 17.2502 7.70953 17.6855 7.41587L17.8148 7.32865C18.3994 6.9343 19.1899 7.06306 19.6191 7.62255C19.7984 7.85627 19.9955 8.10402 20.2007 8.36196C20.6846 8.97019 21.2135 9.63506 21.6603 10.306L20.8135 29.7038ZM20.8135 29.7038C20.834 29.8176 20.8508 29.939 20.8725 30.0953M20.8135 29.7038L20.8725 30.0953M32.819 32.1955C30.8946 28.9072 29.2899 25.4641 27.6548 21.9557C27.3328 21.2647 27.0096 20.5712 26.6825 19.8758M32.819 32.1955L26.6825 19.8758M20.8725 30.0953L20.8787 30.1403M20.8725 30.0953L20.8787 30.1403M20.8787 30.1403C20.9018 30.306 20.9304 30.5084 20.9707 30.7123M20.8787 30.1403L20.9707 30.7123M20.9707 30.7123C21.0459 31.0934 21.1929 31.6642 21.5912 32.1499L20.9707 30.7123ZM26.6825 19.8758C26.531 19.5534 26.3793 19.2291 26.227 18.9034M26.6825 19.8758L26.227 18.9034M26.227 18.9034C24.8844 16.0319 23.492 13.0541 21.6606 10.3065L26.227 18.9034Z" stroke="#1D1D1B" stroke-width="2.66778" stroke-miterlimit="10" stroke-linejoin="round"/>
<path d="M48.7734 7.53421C49.1295 7.84135 49.2976 8.3133 49.2158 8.77638C48.5857 12.3425 47.955 15.9079 47.3236 19.4727C47.1919 20.2179 47.0605 20.9635 46.929 21.7094C46.3991 24.7147 45.8685 27.7246 45.3195 30.7305L45.3177 30.7402L45.3177 30.7402C45.2033 31.3415 44.9478 31.9072 44.5723 32.3906L44.5618 32.404C43.3587 33.9127 42.1365 35.409 40.889 36.9363C40.4887 37.4264 40.0858 37.9196 39.6801 38.4175C39.4234 38.7325 39.0372 38.9133 38.6309 38.9087C38.2246 38.9041 37.8426 38.7145 37.5932 38.3938C37.398 38.1429 37.1998 37.8919 37.0012 37.6403C36.5337 37.0483 36.0641 36.4535 35.6281 35.8524L35.6274 35.8514C35.0513 35.0557 34.5229 34.2356 34.0234 33.4236C34.0077 33.3982 33.993 33.3723 33.9791 33.3459C33.8374 33.0766 33.7567 32.7794 33.7427 32.4754C33.7288 32.1715 33.782 31.8681 33.8985 31.587C33.9181 31.5397 33.9405 31.4935 33.9654 31.4487C35.7535 28.2378 37.2888 24.9364 38.8478 21.5841C39.5085 20.1634 40.1735 18.7336 40.8637 17.2976L48.7734 7.53421ZM48.7734 7.53421L48.6913 7.46342C48.1379 6.98608 47.3034 7.043 46.8199 7.59107C46.7394 7.6823 46.6466 7.78443 46.547 7.89405C46.2905 8.17643 45.9888 8.50857 45.7354 8.8325L45.7342 8.83402M48.7734 7.53421L45.7342 8.83402M45.7342 8.83402C43.6696 11.4803 42.2277 14.4594 40.8637 17.2975L45.7342 8.83402Z" stroke="#1D1D1B" stroke-width="2.66778" stroke-miterlimit="10" stroke-linejoin="round"/>
<path d="M33.2549 5.66809C33.8128 5.69849 34.2926 6.0734 34.4571 6.6074C34.6292 7.16628 34.7975 7.71213 34.9632 8.24921C35.3044 9.35556 35.6341 10.4247 35.9617 11.494L33.2549 5.66809ZM33.2549 5.66809C32.6969 5.63768 32.1792 5.95823 31.9577 6.4712M33.2549 5.66809L31.9577 6.4712M31.9577 6.4712C31.9228 6.55207 31.9018 6.59834 31.8883 6.62751L31.8672 6.67287C31.8598 6.68889 31.8488 6.71262 31.8369 6.74005C31.817 6.78594 31.7996 6.83291 31.7849 6.88075C30.4438 11.2532 29.1094 15.6291 27.782 20.0084C27.7783 20.0205 27.7748 20.0326 27.7715 20.0448C27.6398 20.5283 27.6777 21.0424 27.8789 21.5014C27.8856 21.5167 27.8927 21.5319 27.9 21.547C29.1681 24.1668 30.4407 26.7852 31.7177 29.4023L31.7254 29.4177C31.7929 29.5517 31.8957 29.7206 31.9666 29.8372C31.989 29.8739 32.0082 29.9054 32.0221 29.929C32.2653 30.3413 32.7107 30.5917 33.1893 30.5851C33.6679 30.5785 34.1063 30.316 34.338 29.8973C34.36 29.8575 34.3868 29.8105 34.4162 29.7589C34.4963 29.618 34.5955 29.4438 34.668 29.294L33.8062 28.8766L31.9577 6.4712ZM38.3512 21.7434C38.5092 21.438 38.6035 21.1035 38.6283 20.7603C38.6283 20.7603 38.6283 20.7603 38.6283 20.7603L38.3512 21.7434ZM38.4983 19.7566C37.9062 17.8511 37.3234 15.945 36.7396 14.0354C36.4809 13.1892 36.2219 12.3422 35.9619 11.4943L38.4983 19.7566Z" stroke="#1D1D1B" stroke-width="2.66778" stroke-miterlimit="10" stroke-linejoin="round"/>
</svg>
