<svg width="56" height="55" viewBox="0 0 56 55" fill="none" xmlns="http://www.w3.org/2000/svg">
<circle cx="27.8655" cy="27.25" r="27.25" fill="#FDB500"/>
<path d="M48.4079 27.669C48.4079 16.5553 39.3985 7.5459 28.2848 7.5459C17.1711 7.5459 8.16174 16.5553 8.16174 27.669C8.16174 37.7128 15.5204 46.0379 25.1406 47.5476V33.4858H20.0312V27.669H25.1406V23.2356C25.1406 18.1923 28.1449 15.4065 32.7414 15.4065C34.9423 15.4065 37.2459 15.7995 37.2459 15.7995V20.7517H34.7085C32.2088 20.7517 31.429 22.3029 31.429 23.8959V27.669H37.01L36.1179 33.4858H31.429V47.5476C41.0492 46.0379 48.4079 37.7128 48.4079 27.669Z" fill="#1B1818"/>
</svg>
