<svg width="21" height="21" viewBox="0 0 21 21" fill="none" xmlns="http://www.w3.org/2000/svg">
<path d="M10.1508 2.65308C12.7861 2.65308 13.0982 2.66463 14.1345 2.71087C15.0977 2.75325 15.6179 2.91506 15.9646 3.04991C16.4231 3.22714 16.7544 3.44289 17.0973 3.78579C17.4441 4.13254 17.656 4.46002 17.8332 4.9185C17.968 5.26525 18.1299 5.78922 18.1722 6.74856C18.2185 7.78881 18.23 8.10088 18.23 10.7323C18.23 13.3676 18.2185 13.6797 18.1722 14.7161C18.1299 15.6793 17.968 16.1994 17.8332 16.5461C17.656 17.0046 17.4402 17.336 17.0973 17.6788C16.7506 18.0256 16.4231 18.2375 15.9646 18.4147C15.6179 18.5496 15.0939 18.7114 14.1345 18.7538C13.0943 18.8 12.7822 18.8116 10.1508 18.8116C7.5155 18.8116 7.20343 18.8 6.16703 18.7538C5.20384 18.7114 4.68372 18.5496 4.33697 18.4147C3.87849 18.2375 3.54716 18.0217 3.20426 17.6788C2.85751 17.3321 2.64561 17.0046 2.46838 16.5461C2.33354 16.1994 2.17172 15.6754 2.12934 14.7161C2.08311 13.6758 2.07155 13.3638 2.07155 10.7323C2.07155 8.09703 2.08311 7.78496 2.12934 6.74856C2.17172 5.78537 2.33354 5.26525 2.46838 4.9185C2.64561 4.46002 2.86136 4.12868 3.20426 3.78579C3.55101 3.43904 3.87849 3.22714 4.33697 3.04991C4.68372 2.91506 5.2077 2.75325 6.16703 2.71087C7.20343 2.66463 7.5155 2.65308 10.1508 2.65308ZM10.1508 0.876953C7.47312 0.876953 7.13793 0.888511 6.08613 0.934745C5.03818 0.980978 4.31771 1.1505 3.69356 1.39322C3.04244 1.64751 2.4915 1.9827 1.94441 2.53364C1.39346 3.08073 1.05827 3.63168 0.80399 4.27894C0.561266 4.90694 0.391744 5.62356 0.345511 6.67151C0.299278 7.72716 0.28772 8.06235 0.28772 10.74C0.28772 13.4177 0.299278 13.7529 0.345511 14.8047C0.391744 15.8526 0.561266 16.5731 0.80399 17.1973C1.05827 17.8484 1.39346 18.3993 1.94441 18.9464C2.4915 19.4935 3.04244 19.8325 3.68971 20.083C4.31771 20.3257 5.03432 20.4952 6.08227 20.5414C7.13408 20.5877 7.46927 20.5992 10.1469 20.5992C12.8246 20.5992 13.1598 20.5877 14.2116 20.5414C15.2596 20.4952 15.98 20.3257 16.6042 20.083C17.2514 19.8325 17.8024 19.4935 18.3495 18.9464C18.8966 18.3993 19.2356 17.8484 19.486 17.2011C19.7288 16.5731 19.8983 15.8565 19.9445 14.8085C19.9907 13.7567 20.0023 13.4215 20.0023 10.7439C20.0023 8.06621 19.9907 7.73102 19.9445 6.67921C19.8983 5.63126 19.7288 4.91079 19.486 4.28665C19.2433 3.63168 18.9081 3.08073 18.3572 2.53364C17.8101 1.98655 17.2591 1.64751 16.6119 1.39708C15.9839 1.15435 15.2673 0.98483 14.2193 0.938597C13.1636 0.888511 12.8285 0.876953 10.1508 0.876953Z" fill="#1B1818"/>
<path d="M10.1507 5.67358C7.35363 5.67358 5.08435 7.94286 5.08435 10.74C5.08435 13.5371 7.35363 15.8063 10.1507 15.8063C12.9478 15.8063 15.2171 13.5371 15.2171 10.74C15.2171 7.94286 12.9478 5.67358 10.1507 5.67358ZM10.1507 14.0264C8.33608 14.0264 6.86433 12.5546 6.86433 10.74C6.86433 8.92532 8.33608 7.45356 10.1507 7.45356C11.9654 7.45356 13.4371 8.92532 13.4371 10.74C13.4371 12.5546 11.9654 14.0264 10.1507 14.0264Z" fill="#1B1818"/>
<path d="M16.6003 5.47357C16.6003 6.12854 16.0687 6.65637 15.4175 6.65637C14.7626 6.65637 14.2347 6.12469 14.2347 5.47357C14.2347 4.8186 14.7664 4.29077 15.4175 4.29077C16.0687 4.29077 16.6003 4.82245 16.6003 5.47357Z" fill="#1B1818"/>
</svg>
