<svg width="55" height="52" viewBox="0 0 55 52" fill="none" xmlns="http://www.w3.org/2000/svg">
<rect x="0.753906" y="0.676758" width="53.6615" height="51.1461" rx="13.4154" fill="#4991E4"/>
<path d="M27.5845 10.1696C32.9611 10.1696 33.5978 10.1932 35.7123 10.2875C37.6775 10.374 38.7386 10.7041 39.4461 10.9793C40.3815 11.3408 41.0575 11.781 41.7571 12.4806C42.4646 13.1881 42.8969 13.8562 43.2585 14.7916C43.5336 15.4991 43.8637 16.5681 43.9502 18.5254C44.0445 20.6478 44.0681 21.2845 44.0681 26.6532C44.0681 32.0299 44.0445 32.6666 43.9502 34.7811C43.8637 36.7462 43.5336 37.8074 43.2585 38.5149C42.8969 39.4503 42.4567 40.1263 41.7571 40.8259C41.0497 41.5333 40.3815 41.9656 39.4461 42.3272C38.7386 42.6024 37.6696 42.9325 35.7123 43.019C33.59 43.1133 32.9533 43.1369 27.5845 43.1369C22.2079 43.1369 21.5712 43.1133 19.4567 43.019C17.4915 42.9325 16.4303 42.6024 15.7229 42.3272C14.7875 41.9656 14.1115 41.5255 13.4119 40.8259C12.7044 40.1184 12.2721 39.4503 11.9105 38.5149C11.6354 37.8074 11.3052 36.7384 11.2188 34.7811C11.1245 32.6587 11.1009 32.022 11.1009 26.6532C11.1009 21.2766 11.1245 20.6399 11.2188 18.5254C11.3052 16.5603 11.6354 15.4991 11.9105 14.7916C12.2721 13.8562 12.7123 13.1802 13.4119 12.4806C14.1193 11.7732 14.7875 11.3408 15.7229 10.9793C16.4303 10.7041 17.4994 10.374 19.4567 10.2875C21.5712 10.1932 22.2079 10.1696 27.5845 10.1696ZM27.5845 6.5459C22.1214 6.5459 21.4375 6.56948 19.2916 6.66381C17.1535 6.75813 15.6836 7.104 14.4102 7.59922C13.0817 8.11801 11.9577 8.80188 10.8415 9.92595C9.71741 11.0421 9.03354 12.1662 8.51474 13.4868C8.01953 14.7681 7.67366 16.2301 7.57933 18.3682C7.48501 20.522 7.46143 21.2059 7.46143 26.669C7.46143 32.1321 7.48501 32.8159 7.57933 34.9619C7.67366 37.0999 8.01953 38.5699 8.51474 39.8433C9.03354 41.1717 9.71741 42.2958 10.8415 43.412C11.9577 44.5282 13.0817 45.2199 14.4023 45.7309C15.6836 46.2261 17.1457 46.5719 19.2837 46.6663C21.4297 46.7606 22.1135 46.7842 27.5766 46.7842C33.0397 46.7842 33.7236 46.7606 35.8695 46.6663C38.0076 46.5719 39.4775 46.2261 40.751 45.7309C42.0715 45.2199 43.1956 44.5282 44.3118 43.412C45.428 42.2958 46.1197 41.1717 46.6307 39.8512C47.1259 38.5699 47.4717 37.1078 47.5661 34.9697C47.6604 32.8238 47.684 32.1399 47.684 26.6768C47.684 21.2137 47.6604 20.5299 47.5661 18.3839C47.4717 16.2458 47.1259 14.7759 46.6307 13.5025C46.1354 12.1662 45.4516 11.0421 44.3275 9.92595C43.2113 8.80974 42.0872 8.11801 40.7667 7.60708C39.4854 7.11186 38.0233 6.76599 35.8853 6.67167C33.7315 6.56948 33.0476 6.5459 27.5845 6.5459Z" fill="#1B1818"/>
<path d="M27.5845 16.3323C21.8777 16.3323 17.2478 20.9622 17.2478 26.6689C17.2478 32.3757 21.8777 37.0056 27.5845 37.0056C33.2912 37.0056 37.9211 32.3757 37.9211 26.6689C37.9211 20.9622 33.2912 16.3323 27.5845 16.3323ZM27.5845 33.374C23.8821 33.374 20.8794 30.3713 20.8794 26.6689C20.8794 22.9666 23.8821 19.9639 27.5845 19.9639C31.2868 19.9639 34.2895 22.9666 34.2895 26.6689C34.2895 30.3713 31.2868 33.374 27.5845 33.374Z" fill="#1B1818"/>
<path d="M40.7431 15.9239C40.7431 17.2602 39.6584 18.3371 38.3299 18.3371C36.9936 18.3371 35.9167 17.2524 35.9167 15.9239C35.9167 14.5876 37.0015 13.5107 38.3299 13.5107C39.6584 13.5107 40.7431 14.5955 40.7431 15.9239Z" fill="#1B1818"/>
</svg>
