<svg width="55" height="48" viewBox="0 0 55 48" fill="none" xmlns="http://www.w3.org/2000/svg">
<path d="M37.1577 40.0452C45.5424 34.3437 47.918 22.5773 48.0577 17.4068L52.25 12.7952L47.2193 3.99141C44.7039 4.83019 43.8654 5.2491 41.3501 5.2491C37.577 2.31449 33.0457 2.34004 29.1924 3.99141C26.2578 5.24905 24.1616 9.86064 23.7424 12.7952C19.3824 12.4599 14.3796 7.62474 12.4231 5.2491L7.81161 3.99141C1.43931 15.3945 7.39238 28.3068 11.1655 33.3375C10.1593 35.0145 6.55392 34.0363 4.877 33.3375L3.20007 37.5299C13.2616 47.5914 26.677 47.1722 37.1577 40.0452Z" fill="#295E9A" stroke="#295E9A" stroke-width="4.19231"/>
<path d="M20.0534 40.6011C35.2368 40.6011 43.5439 28.0187 43.5439 17.1106C43.5439 16.7568 43.536 16.3952 43.5203 16.0415C45.1363 14.8729 46.5308 13.4253 47.6385 11.7669C46.1335 12.4365 44.5356 12.8738 42.8993 13.0639C44.6222 12.0312 45.9121 10.4089 46.5301 8.49772C44.9094 9.45825 43.1369 10.1358 41.2887 10.5014C40.0434 9.17821 38.3969 8.30211 36.6038 8.00854C34.8107 7.71497 32.9707 8.02028 31.3685 8.87726C29.7663 9.73425 28.491 11.0952 27.7399 12.7496C26.9887 14.4041 26.8034 16.2599 27.2128 18.0302C23.931 17.8656 20.7204 17.013 17.7892 15.5279C14.858 14.0428 12.2717 11.9583 10.1978 9.40955C9.14371 11.2269 8.82117 13.3774 9.29569 15.424C9.77022 17.4705 11.0062 19.2597 12.7525 20.4277C11.4415 20.3861 10.1592 20.0331 9.01161 19.398V19.5002C9.01044 21.4073 9.66976 23.256 10.8775 24.732C12.0852 26.208 13.7669 27.2202 15.6365 27.5966C14.4221 27.9288 13.1475 27.9772 11.9114 27.738C12.439 29.3782 13.4654 30.8127 14.8475 31.8414C16.2297 32.8701 17.8985 33.4417 19.621 33.4763C16.6966 35.7734 13.0841 37.0194 9.36534 37.0135C8.70585 37.0125 8.047 36.9721 7.39233 36.8925C11.1702 39.3162 15.5649 40.6034 20.0534 40.6011Z" fill="#1B1818"/>
</svg>
