<svg width="20" height="17" viewBox="0 0 20 17" fill="none" xmlns="http://www.w3.org/2000/svg">
<path d="M6.26033 16.4934C13.7023 16.4934 17.7739 10.3263 17.7739 4.97982C17.7739 4.80644 17.7701 4.62922 17.7624 4.45584C18.5544 3.88305 19.2379 3.17356 19.7808 2.36071C19.0432 2.68891 18.26 2.90325 17.458 2.99642C18.3024 2.49025 18.9347 1.6951 19.2376 0.758347C18.4432 1.22914 17.5744 1.56124 16.6686 1.74042C16.0582 1.09188 15.2512 0.662469 14.3723 0.518579C13.4934 0.374689 12.5916 0.524332 11.8063 0.944372C11.021 1.36441 10.396 2.03145 10.0278 2.84237C9.65959 3.65328 9.56879 4.5629 9.76943 5.43059C8.16089 5.34987 6.58728 4.93202 5.15059 4.20412C3.71391 3.47622 2.44623 2.45452 1.42974 1.20527C0.913103 2.09601 0.755012 3.15004 0.987595 4.15315C1.22018 5.15627 1.82598 6.03318 2.68189 6.60568C2.03932 6.58528 1.41084 6.41228 0.848356 6.10097V6.15106C0.847781 7.08582 1.17094 7.99194 1.7629 8.71538C2.35486 9.43882 3.17908 9.93494 4.09546 10.1194C3.50023 10.2823 2.87551 10.306 2.26964 10.1888C2.52823 10.9927 3.03134 11.6958 3.70877 12.2C4.38619 12.7042 5.20413 12.9843 6.04843 13.0013C4.61506 14.1272 2.84444 14.7379 1.02173 14.735C0.698489 14.7345 0.375565 14.7147 0.0546875 14.6757C1.90636 15.8636 4.06035 16.4946 6.26033 16.4934Z" fill="#1B1818"/>
</svg>
