<svg width="54" height="45" viewBox="0 0 54 45" fill="none" xmlns="http://www.w3.org/2000/svg">
<rect x="0.338501" y="0.869141" width="53.6615" height="43.6" rx="13.4154" fill="#FBFF3B"/>
<path d="M46.8914 14.5227C46.8914 14.5227 46.4984 11.7479 45.2878 10.5295C43.755 8.92598 42.0414 8.91812 41.2554 8.82379C35.6272 8.41504 27.1771 8.41504 27.1771 8.41504H27.1613C27.1613 8.41504 18.7112 8.41504 13.0831 8.82379C12.297 8.91812 10.5834 8.92598 9.05059 10.5295C7.84006 11.7479 7.45489 14.5227 7.45489 14.5227C7.45489 14.5227 7.04614 17.7848 7.04614 21.0391V24.089C7.04614 27.3433 7.44703 30.6054 7.44703 30.6054C7.44703 30.6054 7.84006 33.3802 9.04273 34.5986C10.5755 36.2022 12.5878 36.1471 13.484 36.3201C16.7068 36.6266 27.1692 36.721 27.1692 36.721C27.1692 36.721 35.6272 36.7052 41.2554 36.3044C42.0414 36.21 43.755 36.2022 45.2878 34.5986C46.4984 33.3802 46.8914 30.6054 46.8914 30.6054C46.8914 30.6054 47.2923 27.3512 47.2923 24.089V21.0391C47.2923 17.7848 46.8914 14.5227 46.8914 14.5227ZM23.011 27.7914V16.48L33.8821 22.1553L23.011 27.7914Z" fill="#1B1818"/>
</svg>
