<svg width="21" height="15" viewBox="0 0 21 15" fill="none" xmlns="http://www.w3.org/2000/svg">
<path d="M19.8171 3.69184C19.8171 3.69184 19.6245 2.33181 19.0312 1.73464C18.2799 0.948672 17.44 0.944819 17.0547 0.898586C14.2961 0.698242 10.1544 0.698242 10.1544 0.698242H10.1467C10.1467 0.698242 6.00497 0.698242 3.2464 0.898586C2.86112 0.944819 2.02122 0.948672 1.26993 1.73464C0.676605 2.33181 0.487819 3.69184 0.487819 3.69184C0.487819 3.69184 0.287476 5.29073 0.287476 6.88578V8.38065C0.287476 9.97569 0.483966 11.5746 0.483966 11.5746C0.483966 11.5746 0.676604 12.9346 1.26608 13.5318C2.01737 14.3178 3.00367 14.2908 3.44289 14.3755C5.02252 14.5258 10.1505 14.572 10.1505 14.572C10.1505 14.572 14.2961 14.5643 17.0547 14.3678C17.44 14.3216 18.2799 14.3178 19.0312 13.5318C19.6245 12.9346 19.8171 11.5746 19.8171 11.5746C19.8171 11.5746 20.0136 9.97954 20.0136 8.38065V6.88578C20.0136 5.29073 19.8171 3.69184 19.8171 3.69184ZM8.11243 10.1953V4.65118L13.4408 7.43287L8.11243 10.1953Z" fill="#1B1818"/>
</svg>
